<mxfile host="app.diagrams.net" agent="Mozilla/5.0 (Windows NT 10.0; Win64; x64) AppleWebKit/537.36 (KHTML, like Gecko) Chrome/128.0.0.0 YaBrowser/24.10.0.0 Safari/537.36" version="24.8.4">
  <diagram name="Страница — 1" id="3KXPLnCQKA9vr0dPYOuq">
    <mxGraphModel dx="1615" dy="945" grid="1" gridSize="10" guides="1" tooltips="1" connect="1" arrows="1" fold="1" page="1" pageScale="1" pageWidth="827" pageHeight="1169" math="0" shadow="0">
      <root>
        <mxCell id="0" />
        <mxCell id="1" parent="0" />
        <mxCell id="IGCjHrR6P7Ein627Nfpy-1" value="Начало" style="ellipse;whiteSpace=wrap;html=1;" parent="1" vertex="1">
          <mxGeometry x="350" y="20" width="100" height="40" as="geometry" />
        </mxCell>
        <mxCell id="IGCjHrR6P7Ein627Nfpy-2" value="Конец" style="ellipse;whiteSpace=wrap;html=1;" parent="1" vertex="1">
          <mxGeometry x="790" y="50" width="100" height="40" as="geometry" />
        </mxCell>
        <mxCell id="IGCjHrR6P7Ein627Nfpy-6" value="" style="edgeStyle=orthogonalEdgeStyle;rounded=0;orthogonalLoop=1;jettySize=auto;html=1;" parent="1" source="IGCjHrR6P7Ein627Nfpy-3" target="IGCjHrR6P7Ein627Nfpy-4" edge="1">
          <mxGeometry relative="1" as="geometry" />
        </mxCell>
        <mxCell id="IGCjHrR6P7Ein627Nfpy-3" value="Открыть сайт, который хостит игру" style="rounded=0;whiteSpace=wrap;html=1;" parent="1" vertex="1">
          <mxGeometry x="340" y="80" width="120" height="60" as="geometry" />
        </mxCell>
        <mxCell id="IGCjHrR6P7Ein627Nfpy-8" value="" style="edgeStyle=orthogonalEdgeStyle;rounded=0;orthogonalLoop=1;jettySize=auto;html=1;" parent="1" source="IGCjHrR6P7Ein627Nfpy-4" target="IGCjHrR6P7Ein627Nfpy-7" edge="1">
          <mxGeometry relative="1" as="geometry" />
        </mxCell>
        <mxCell id="IGCjHrR6P7Ein627Nfpy-4" value="Открытие меню" style="rounded=0;whiteSpace=wrap;html=1;" parent="1" vertex="1">
          <mxGeometry x="340" y="160" width="120" height="60" as="geometry" />
        </mxCell>
        <mxCell id="IGCjHrR6P7Ein627Nfpy-5" value="" style="endArrow=classic;html=1;rounded=0;entryX=0.5;entryY=0;entryDx=0;entryDy=0;exitX=0.5;exitY=1;exitDx=0;exitDy=0;" parent="1" source="IGCjHrR6P7Ein627Nfpy-1" target="IGCjHrR6P7Ein627Nfpy-3" edge="1">
          <mxGeometry width="50" height="50" relative="1" as="geometry">
            <mxPoint x="260" y="90" as="sourcePoint" />
            <mxPoint x="310" y="40" as="targetPoint" />
          </mxGeometry>
        </mxCell>
        <mxCell id="IGCjHrR6P7Ein627Nfpy-12" value="" style="edgeStyle=orthogonalEdgeStyle;rounded=0;orthogonalLoop=1;jettySize=auto;html=1;" parent="1" source="IGCjHrR6P7Ein627Nfpy-7" target="IGCjHrR6P7Ein627Nfpy-9" edge="1">
          <mxGeometry relative="1" as="geometry" />
        </mxCell>
        <mxCell id="IGCjHrR6P7Ein627Nfpy-13" style="edgeStyle=orthogonalEdgeStyle;rounded=0;orthogonalLoop=1;jettySize=auto;html=1;entryX=0.5;entryY=0;entryDx=0;entryDy=0;" parent="1" source="IGCjHrR6P7Ein627Nfpy-7" target="IGCjHrR6P7Ein627Nfpy-10" edge="1">
          <mxGeometry relative="1" as="geometry" />
        </mxCell>
        <mxCell id="IGCjHrR6P7Ein627Nfpy-7" value="Выбор действия" style="rhombus;whiteSpace=wrap;html=1;" parent="1" vertex="1">
          <mxGeometry x="330" y="240" width="140" height="80" as="geometry" />
        </mxCell>
        <mxCell id="IGCjHrR6P7Ein627Nfpy-26" style="edgeStyle=orthogonalEdgeStyle;rounded=0;orthogonalLoop=1;jettySize=auto;html=1;" parent="1" source="IGCjHrR6P7Ein627Nfpy-9" target="IGCjHrR6P7Ein627Nfpy-15" edge="1">
          <mxGeometry relative="1" as="geometry" />
        </mxCell>
        <mxCell id="IGCjHrR6P7Ein627Nfpy-9" value="Запустить игру" style="rounded=0;whiteSpace=wrap;html=1;" parent="1" vertex="1">
          <mxGeometry x="340" y="340" width="120" height="60" as="geometry" />
        </mxCell>
        <mxCell id="IGCjHrR6P7Ein627Nfpy-16" style="edgeStyle=orthogonalEdgeStyle;rounded=0;orthogonalLoop=1;jettySize=auto;html=1;exitX=0.5;exitY=1;exitDx=0;exitDy=0;entryX=0.5;entryY=0;entryDx=0;entryDy=0;" parent="1" source="IGCjHrR6P7Ein627Nfpy-10" target="IGCjHrR6P7Ein627Nfpy-2" edge="1">
          <mxGeometry relative="1" as="geometry">
            <Array as="points">
              <mxPoint x="220" y="450" />
              <mxPoint x="150" y="450" />
              <mxPoint x="150" y="10" />
              <mxPoint x="840" y="10" />
            </Array>
            <mxPoint x="710" y="110" as="targetPoint" />
          </mxGeometry>
        </mxCell>
        <mxCell id="IGCjHrR6P7Ein627Nfpy-10" value="Выйти из игры" style="rounded=0;whiteSpace=wrap;html=1;" parent="1" vertex="1">
          <mxGeometry x="160" y="340" width="120" height="60" as="geometry" />
        </mxCell>
        <mxCell id="IGCjHrR6P7Ein627Nfpy-11" value="Открыть окно с авторами" style="rounded=0;whiteSpace=wrap;html=1;" parent="1" vertex="1">
          <mxGeometry x="520" y="340" width="120" height="60" as="geometry" />
        </mxCell>
        <mxCell id="IGCjHrR6P7Ein627Nfpy-27" style="edgeStyle=orthogonalEdgeStyle;rounded=0;orthogonalLoop=1;jettySize=auto;html=1;entryX=0.5;entryY=0;entryDx=0;entryDy=0;" parent="1" source="IGCjHrR6P7Ein627Nfpy-15" target="IGCjHrR6P7Ein627Nfpy-22" edge="1">
          <mxGeometry relative="1" as="geometry" />
        </mxCell>
        <mxCell id="IGCjHrR6P7Ein627Nfpy-15" value="Пройти сюжетную часть" style="rounded=0;whiteSpace=wrap;html=1;" parent="1" vertex="1">
          <mxGeometry x="340" y="420" width="120" height="60" as="geometry" />
        </mxCell>
        <mxCell id="IGCjHrR6P7Ein627Nfpy-21" value="" style="endArrow=classic;startArrow=classic;html=1;rounded=0;exitX=1;exitY=0.5;exitDx=0;exitDy=0;entryX=0.5;entryY=0;entryDx=0;entryDy=0;" parent="1" source="IGCjHrR6P7Ein627Nfpy-7" target="IGCjHrR6P7Ein627Nfpy-11" edge="1">
          <mxGeometry width="50" height="50" relative="1" as="geometry">
            <mxPoint x="500" y="290" as="sourcePoint" />
            <mxPoint x="550" y="240" as="targetPoint" />
            <Array as="points">
              <mxPoint x="580" y="280" />
            </Array>
          </mxGeometry>
        </mxCell>
        <mxCell id="IGCjHrR6P7Ein627Nfpy-35" style="edgeStyle=orthogonalEdgeStyle;rounded=0;orthogonalLoop=1;jettySize=auto;html=1;" parent="1" source="IGCjHrR6P7Ein627Nfpy-22" target="IGCjHrR6P7Ein627Nfpy-28" edge="1">
          <mxGeometry relative="1" as="geometry" />
        </mxCell>
        <mxCell id="IGCjHrR6P7Ein627Nfpy-22" value="Пройти на первый уровень" style="rounded=0;whiteSpace=wrap;html=1;" parent="1" vertex="1">
          <mxGeometry x="340" y="500" width="120" height="60" as="geometry" />
        </mxCell>
        <mxCell id="IGCjHrR6P7Ein627Nfpy-43" style="edgeStyle=orthogonalEdgeStyle;rounded=0;orthogonalLoop=1;jettySize=auto;html=1;exitX=0.5;exitY=0;exitDx=0;exitDy=0;entryX=0.5;entryY=1;entryDx=0;entryDy=0;" parent="1" source="IGCjHrR6P7Ein627Nfpy-23" target="IGCjHrR6P7Ein627Nfpy-47" edge="1">
          <mxGeometry relative="1" as="geometry">
            <mxPoint x="920" y="1060" as="targetPoint" />
            <Array as="points">
              <mxPoint x="840" y="840" />
            </Array>
          </mxGeometry>
        </mxCell>
        <mxCell id="IGCjHrR6P7Ein627Nfpy-23" value="Пройти на второй уровень" style="rounded=0;whiteSpace=wrap;html=1;" parent="1" vertex="1">
          <mxGeometry x="780" y="840" width="120" height="60" as="geometry" />
        </mxCell>
        <mxCell id="IGCjHrR6P7Ein627Nfpy-58" style="edgeStyle=orthogonalEdgeStyle;rounded=0;orthogonalLoop=1;jettySize=auto;html=1;entryX=0.5;entryY=1;entryDx=0;entryDy=0;exitX=0.5;exitY=0;exitDx=0;exitDy=0;" parent="1" source="IGCjHrR6P7Ein627Nfpy-24" target="IGCjHrR6P7Ein627Nfpy-55" edge="1">
          <mxGeometry relative="1" as="geometry">
            <mxPoint x="520" y="1190" as="sourcePoint" />
          </mxGeometry>
        </mxCell>
        <mxCell id="IGCjHrR6P7Ein627Nfpy-24" value="Пройти на третий уровень" style="rounded=0;whiteSpace=wrap;html=1;" parent="1" vertex="1">
          <mxGeometry x="780" y="480" width="120" height="60" as="geometry" />
        </mxCell>
        <mxCell id="IGCjHrR6P7Ein627Nfpy-28" value="Убивать врагов" style="rounded=0;whiteSpace=wrap;html=1;" parent="1" vertex="1">
          <mxGeometry x="340" y="580" width="120" height="60" as="geometry" />
        </mxCell>
        <mxCell id="IGCjHrR6P7Ein627Nfpy-29" value="Умер?" style="rhombus;whiteSpace=wrap;html=1;" parent="1" vertex="1">
          <mxGeometry x="360" y="660" width="80" height="80" as="geometry" />
        </mxCell>
        <mxCell id="IGCjHrR6P7Ein627Nfpy-37" style="edgeStyle=orthogonalEdgeStyle;rounded=0;orthogonalLoop=1;jettySize=auto;html=1;exitX=0.5;exitY=1;exitDx=0;exitDy=0;" parent="1" source="IGCjHrR6P7Ein627Nfpy-30" target="IGCjHrR6P7Ein627Nfpy-23" edge="1">
          <mxGeometry relative="1" as="geometry">
            <mxPoint x="690" y="980" as="sourcePoint" />
          </mxGeometry>
        </mxCell>
        <mxCell id="IGCjHrR6P7Ein627Nfpy-30" value="Убил всех врагов?" style="rhombus;whiteSpace=wrap;html=1;" parent="1" vertex="1">
          <mxGeometry x="360" y="760" width="80" height="80" as="geometry" />
        </mxCell>
        <mxCell id="IGCjHrR6P7Ein627Nfpy-31" value="" style="endArrow=classic;html=1;rounded=0;exitX=0;exitY=0.5;exitDx=0;exitDy=0;" parent="1" source="IGCjHrR6P7Ein627Nfpy-29" edge="1">
          <mxGeometry width="50" height="50" relative="1" as="geometry">
            <mxPoint x="280" y="710" as="sourcePoint" />
            <mxPoint x="400" y="490" as="targetPoint" />
            <Array as="points">
              <mxPoint x="330" y="700" />
              <mxPoint x="330" y="490" />
            </Array>
          </mxGeometry>
        </mxCell>
        <mxCell id="IGCjHrR6P7Ein627Nfpy-32" value="" style="endArrow=classic;html=1;rounded=0;exitX=0.5;exitY=1;exitDx=0;exitDy=0;entryX=0.5;entryY=0;entryDx=0;entryDy=0;" parent="1" source="IGCjHrR6P7Ein627Nfpy-29" target="IGCjHrR6P7Ein627Nfpy-30" edge="1">
          <mxGeometry width="50" height="50" relative="1" as="geometry">
            <mxPoint x="350" y="800" as="sourcePoint" />
            <mxPoint x="400" y="750" as="targetPoint" />
          </mxGeometry>
        </mxCell>
        <mxCell id="IGCjHrR6P7Ein627Nfpy-33" value="" style="endArrow=classic;html=1;rounded=0;exitX=0.5;exitY=1;exitDx=0;exitDy=0;entryX=0.5;entryY=0;entryDx=0;entryDy=0;" parent="1" source="IGCjHrR6P7Ein627Nfpy-28" target="IGCjHrR6P7Ein627Nfpy-29" edge="1">
          <mxGeometry width="50" height="50" relative="1" as="geometry">
            <mxPoint x="450" y="690" as="sourcePoint" />
            <mxPoint x="500" y="640" as="targetPoint" />
          </mxGeometry>
        </mxCell>
        <mxCell id="IGCjHrR6P7Ein627Nfpy-36" value="" style="endArrow=classic;html=1;rounded=0;exitX=1;exitY=0.5;exitDx=0;exitDy=0;" parent="1" source="IGCjHrR6P7Ein627Nfpy-30" edge="1">
          <mxGeometry width="50" height="50" relative="1" as="geometry">
            <mxPoint x="470" y="800" as="sourcePoint" />
            <mxPoint x="400" y="570" as="targetPoint" />
            <Array as="points">
              <mxPoint x="470" y="800" />
              <mxPoint x="470" y="570" />
            </Array>
          </mxGeometry>
        </mxCell>
        <mxCell id="IGCjHrR6P7Ein627Nfpy-44" style="edgeStyle=orthogonalEdgeStyle;rounded=0;orthogonalLoop=1;jettySize=auto;html=1;entryX=0.5;entryY=1;entryDx=0;entryDy=0;exitX=0.5;exitY=0;exitDx=0;exitDy=0;" parent="1" source="IGCjHrR6P7Ein627Nfpy-40" target="IGCjHrR6P7Ein627Nfpy-41" edge="1">
          <mxGeometry relative="1" as="geometry">
            <mxPoint x="700" y="900" as="sourcePoint" />
          </mxGeometry>
        </mxCell>
        <mxCell id="IGCjHrR6P7Ein627Nfpy-40" value="Умер?" style="rhombus;whiteSpace=wrap;html=1;" parent="1" vertex="1">
          <mxGeometry x="800" y="660" width="80" height="80" as="geometry" />
        </mxCell>
        <mxCell id="IGCjHrR6P7Ein627Nfpy-45" style="edgeStyle=orthogonalEdgeStyle;rounded=0;orthogonalLoop=1;jettySize=auto;html=1;entryX=0.5;entryY=1;entryDx=0;entryDy=0;exitX=0.5;exitY=0;exitDx=0;exitDy=0;" parent="1" source="IGCjHrR6P7Ein627Nfpy-41" target="IGCjHrR6P7Ein627Nfpy-24" edge="1">
          <mxGeometry relative="1" as="geometry">
            <mxPoint x="600" y="1010" as="sourcePoint" />
          </mxGeometry>
        </mxCell>
        <mxCell id="IGCjHrR6P7Ein627Nfpy-41" value="Убил всех врагов?" style="rhombus;whiteSpace=wrap;html=1;" parent="1" vertex="1">
          <mxGeometry x="800" y="560" width="80" height="80" as="geometry" />
        </mxCell>
        <mxCell id="IGCjHrR6P7Ein627Nfpy-42" value="" style="endArrow=classic;html=1;rounded=0;exitX=0;exitY=0.5;exitDx=0;exitDy=0;" parent="1" source="IGCjHrR6P7Ein627Nfpy-40" edge="1">
          <mxGeometry width="50" height="50" relative="1" as="geometry">
            <mxPoint x="620" y="1120" as="sourcePoint" />
            <mxPoint x="760" y="870" as="targetPoint" />
            <Array as="points">
              <mxPoint x="760" y="700" />
            </Array>
          </mxGeometry>
        </mxCell>
        <mxCell id="IGCjHrR6P7Ein627Nfpy-46" value="" style="endArrow=classic;html=1;rounded=0;" parent="1" edge="1">
          <mxGeometry width="50" height="50" relative="1" as="geometry">
            <mxPoint x="880" y="600" as="sourcePoint" />
            <mxPoint x="840" y="830" as="targetPoint" />
            <Array as="points">
              <mxPoint x="910" y="600" />
              <mxPoint x="910" y="830" />
            </Array>
          </mxGeometry>
        </mxCell>
        <mxCell id="IGCjHrR6P7Ein627Nfpy-48" style="edgeStyle=orthogonalEdgeStyle;rounded=0;orthogonalLoop=1;jettySize=auto;html=1;entryX=0.5;entryY=1;entryDx=0;entryDy=0;exitX=0.5;exitY=0;exitDx=0;exitDy=0;" parent="1" source="IGCjHrR6P7Ein627Nfpy-47" target="IGCjHrR6P7Ein627Nfpy-40" edge="1">
          <mxGeometry relative="1" as="geometry">
            <mxPoint x="950" y="690" as="sourcePoint" />
          </mxGeometry>
        </mxCell>
        <mxCell id="IGCjHrR6P7Ein627Nfpy-47" value="Убивать врагов" style="rounded=0;whiteSpace=wrap;html=1;" parent="1" vertex="1">
          <mxGeometry x="780" y="760" width="120" height="60" as="geometry" />
        </mxCell>
        <mxCell id="IGCjHrR6P7Ein627Nfpy-51" style="edgeStyle=orthogonalEdgeStyle;rounded=0;orthogonalLoop=1;jettySize=auto;html=1;entryX=0.5;entryY=1;entryDx=0;entryDy=0;exitX=0.5;exitY=0;exitDx=0;exitDy=0;" parent="1" source="IGCjHrR6P7Ein627Nfpy-52" target="IGCjHrR6P7Ein627Nfpy-53" edge="1">
          <mxGeometry relative="1" as="geometry">
            <mxPoint x="900" y="300" as="sourcePoint" />
          </mxGeometry>
        </mxCell>
        <mxCell id="IGCjHrR6P7Ein627Nfpy-52" value="Умер?" style="rhombus;whiteSpace=wrap;html=1;" parent="1" vertex="1">
          <mxGeometry x="800" y="300" width="80" height="80" as="geometry" />
        </mxCell>
        <mxCell id="IGCjHrR6P7Ein627Nfpy-63" style="edgeStyle=orthogonalEdgeStyle;rounded=0;orthogonalLoop=1;jettySize=auto;html=1;entryX=0.5;entryY=1;entryDx=0;entryDy=0;exitX=0.5;exitY=0;exitDx=0;exitDy=0;" parent="1" source="IGCjHrR6P7Ein627Nfpy-53" target="IGCjHrR6P7Ein627Nfpy-61" edge="1">
          <mxGeometry relative="1" as="geometry">
            <mxPoint x="710" y="190" as="sourcePoint" />
          </mxGeometry>
        </mxCell>
        <mxCell id="IGCjHrR6P7Ein627Nfpy-53" value="Убил всех врагов?" style="rhombus;whiteSpace=wrap;html=1;" parent="1" vertex="1">
          <mxGeometry x="800" y="200" width="80" height="80" as="geometry" />
        </mxCell>
        <mxCell id="IGCjHrR6P7Ein627Nfpy-54" style="edgeStyle=orthogonalEdgeStyle;rounded=0;orthogonalLoop=1;jettySize=auto;html=1;exitX=0.5;exitY=0;exitDx=0;exitDy=0;entryX=0.5;entryY=1;entryDx=0;entryDy=0;" parent="1" source="IGCjHrR6P7Ein627Nfpy-55" target="IGCjHrR6P7Ein627Nfpy-52" edge="1">
          <mxGeometry relative="1" as="geometry">
            <mxPoint x="1060" y="-63.60001627604174" as="sourcePoint" />
            <mxPoint x="840" y="380" as="targetPoint" />
          </mxGeometry>
        </mxCell>
        <mxCell id="IGCjHrR6P7Ein627Nfpy-55" value="Убивать врагов" style="rounded=0;whiteSpace=wrap;html=1;" parent="1" vertex="1">
          <mxGeometry x="780" y="400" width="120" height="60" as="geometry" />
        </mxCell>
        <mxCell id="IGCjHrR6P7Ein627Nfpy-59" value="" style="endArrow=classic;html=1;rounded=0;exitX=0;exitY=0.5;exitDx=0;exitDy=0;" parent="1" source="IGCjHrR6P7Ein627Nfpy-52" edge="1">
          <mxGeometry width="50" height="50" relative="1" as="geometry">
            <mxPoint x="950" y="260" as="sourcePoint" />
            <mxPoint x="840" y="550" as="targetPoint" />
            <Array as="points">
              <mxPoint x="760" y="340" />
              <mxPoint x="760" y="550" />
            </Array>
          </mxGeometry>
        </mxCell>
        <mxCell id="IGCjHrR6P7Ein627Nfpy-60" value="" style="endArrow=classic;html=1;rounded=0;exitX=1;exitY=0.5;exitDx=0;exitDy=0;" parent="1" edge="1" source="IGCjHrR6P7Ein627Nfpy-53">
          <mxGeometry width="50" height="50" relative="1" as="geometry">
            <mxPoint x="1060" y="340" as="sourcePoint" />
            <mxPoint x="840" y="470" as="targetPoint" />
            <Array as="points">
              <mxPoint x="910" y="240" />
              <mxPoint x="910" y="470" />
            </Array>
          </mxGeometry>
        </mxCell>
        <mxCell id="O4LQI46s6NZ51YK76f7--2" value="" style="edgeStyle=orthogonalEdgeStyle;rounded=0;orthogonalLoop=1;jettySize=auto;html=1;" edge="1" parent="1" source="IGCjHrR6P7Ein627Nfpy-61" target="IGCjHrR6P7Ein627Nfpy-2">
          <mxGeometry relative="1" as="geometry" />
        </mxCell>
        <mxCell id="IGCjHrR6P7Ein627Nfpy-61" value="Демо-конец" style="rounded=0;whiteSpace=wrap;html=1;" parent="1" vertex="1">
          <mxGeometry x="780" y="120" width="120" height="60" as="geometry" />
        </mxCell>
        <mxCell id="IGCjHrR6P7Ein627Nfpy-64" value="Да" style="text;html=1;align=center;verticalAlign=middle;whiteSpace=wrap;rounded=0;" parent="1" vertex="1">
          <mxGeometry x="290" y="560" width="60" height="30" as="geometry" />
        </mxCell>
        <mxCell id="IGCjHrR6P7Ein627Nfpy-65" value="Да" style="text;html=1;align=center;verticalAlign=middle;whiteSpace=wrap;rounded=0;" parent="1" vertex="1">
          <mxGeometry x="720" y="715" width="60" height="30" as="geometry" />
        </mxCell>
        <mxCell id="IGCjHrR6P7Ein627Nfpy-70" value="Да" style="text;html=1;align=center;verticalAlign=middle;whiteSpace=wrap;rounded=0;" parent="1" vertex="1">
          <mxGeometry x="827" y="180" width="60" height="30" as="geometry" />
        </mxCell>
        <mxCell id="IGCjHrR6P7Ein627Nfpy-71" value="Да" style="text;html=1;align=center;verticalAlign=middle;whiteSpace=wrap;rounded=0;" parent="1" vertex="1">
          <mxGeometry x="720" y="355" width="60" height="30" as="geometry" />
        </mxCell>
        <mxCell id="IGCjHrR6P7Ein627Nfpy-72" value="Да" style="text;html=1;align=center;verticalAlign=middle;whiteSpace=wrap;rounded=0;" parent="1" vertex="1">
          <mxGeometry x="390" y="840" width="60" height="30" as="geometry" />
        </mxCell>
        <mxCell id="IGCjHrR6P7Ein627Nfpy-73" value="Да" style="text;html=1;align=center;verticalAlign=middle;whiteSpace=wrap;rounded=0;" parent="1" vertex="1">
          <mxGeometry x="827" y="540" width="60" height="30" as="geometry" />
        </mxCell>
        <mxCell id="IGCjHrR6P7Ein627Nfpy-74" value="Нет" style="text;html=1;align=center;verticalAlign=middle;whiteSpace=wrap;rounded=0;" parent="1" vertex="1">
          <mxGeometry x="354" y="730" width="60" height="30" as="geometry" />
        </mxCell>
        <mxCell id="IGCjHrR6P7Ein627Nfpy-75" value="Нет" style="text;html=1;align=center;verticalAlign=middle;whiteSpace=wrap;rounded=0;" parent="1" vertex="1">
          <mxGeometry x="460" y="685" width="60" height="30" as="geometry" />
        </mxCell>
        <mxCell id="IGCjHrR6P7Ein627Nfpy-76" value="Нет" style="text;html=1;align=center;verticalAlign=middle;whiteSpace=wrap;rounded=0;" parent="1" vertex="1">
          <mxGeometry x="900" y="690" width="60" height="30" as="geometry" />
        </mxCell>
        <mxCell id="IGCjHrR6P7Ein627Nfpy-77" value="Нет" style="text;html=1;align=center;verticalAlign=middle;whiteSpace=wrap;rounded=0;" parent="1" vertex="1">
          <mxGeometry x="827" y="640" width="60" height="30" as="geometry" />
        </mxCell>
        <mxCell id="IGCjHrR6P7Ein627Nfpy-78" value="Нет" style="text;html=1;align=center;verticalAlign=middle;whiteSpace=wrap;rounded=0;" parent="1" vertex="1">
          <mxGeometry x="830" y="280" width="60" height="30" as="geometry" />
        </mxCell>
        <mxCell id="IGCjHrR6P7Ein627Nfpy-79" value="Нет" style="text;html=1;align=center;verticalAlign=middle;whiteSpace=wrap;rounded=0;" parent="1" vertex="1">
          <mxGeometry x="900" y="340" width="60" height="30" as="geometry" />
        </mxCell>
      </root>
    </mxGraphModel>
  </diagram>
</mxfile>
